<?xml version="1.0" standalone="no"?>
<!DOCTYPE svg PUBLIC "-//W3C//DTD SVG 20010904//EN"
 "http://www.w3.org/TR/2001/REC-SVG-20010904/DTD/svg10.dtd">
<svg version="1.0" xmlns="http://www.w3.org/2000/svg"
 width="272.000000pt" height="286.000000pt" viewBox="0 0 272.000000 286.000000"
 preserveAspectRatio="xMidYMid meet">

<g transform="translate(0.000000,286.000000) scale(0.100000,-0.100000)"
fill="#000000" stroke="none">
<path d="M114 2648 c-12 -5 -27 -21 -33 -34 -16 -35 -16 -2433 0 -2467 6 -14
22 -30 36 -36 34 -16 2432 -16 2466 0 14 6 30 22 36 36 8 17 11 368 11 1233 0
865 -3 1216 -11 1233 -6 14 -22 30 -36 36 -33 15 -2438 14 -2469 -1z m2137
-486 c-17 -22 -37 -45 -46 -52 -29 -24 -43 -63 -125 -346 -44 -153 -93 -300
-108 -328 -15 -27 -47 -70 -72 -94 -42 -41 -1046 -684 -1155 -739 -77 -40
-217 -85 -228 -74 -11 11 118 163 548 650 138 155 250 288 250 294 0 9 -49 14
-165 18 -116 4 -175 10 -200 21 -50 22 -117 82 -285 256 l-148 153 369 -3
c342 -3 372 -4 409 -23 22 -10 140 -115 262 -232 223 -215 253 -236 253 -178
0 17 -35 56 -125 141 -69 65 -125 123 -125 129 0 17 381 391 417 409 51 25
100 34 206 35 l99 1 -31 -38z"/>
</g>
</svg>
